<svg width="260" height="166" viewBox="0 0 260 166" fill="none" xmlns="http://www.w3.org/2000/svg">
<ellipse opacity="0.3" cx="4.5" cy="3.83313" rx="4.5" ry="3.76367" fill="#FFD748"/>
<ellipse opacity="0.3" cx="40.5" cy="3.83313" rx="4.5" ry="3.76367" fill="#FFD748"/>
<ellipse opacity="0.3" cx="76" cy="3.83313" rx="4" ry="3.76367" fill="#FFD748"/>
<ellipse opacity="0.3" cx="112" cy="3.83313" rx="4" ry="3.76367" fill="#FFD748"/>
<ellipse opacity="0.3" cx="148" cy="3.83313" rx="4" ry="3.76367" fill="#FFD748"/>
<ellipse opacity="0.3" cx="184" cy="3.83313" rx="4" ry="3.76367" fill="#FFD748"/>
<ellipse opacity="0.3" cx="220" cy="3.83313" rx="4" ry="3.76367" fill="#FFD748"/>
<ellipse opacity="0.3" cx="256" cy="3.83313" rx="4" ry="3.76367" fill="#FFD748"/>
<ellipse opacity="0.3" cx="4.5" cy="26.4152" rx="4.5" ry="3.76367" fill="#FFD748"/>
<ellipse opacity="0.3" cx="40.5" cy="26.4152" rx="4.5" ry="3.76367" fill="#FFD748"/>
<ellipse opacity="0.3" cx="76" cy="26.4152" rx="4" ry="3.76367" fill="#FFD748"/>
<ellipse opacity="0.3" cx="112" cy="26.4152" rx="4" ry="3.76367" fill="#FFD748"/>
<ellipse opacity="0.3" cx="148" cy="26.4152" rx="4" ry="3.76367" fill="#FFD748"/>
<ellipse opacity="0.3" cx="184" cy="26.4152" rx="4" ry="3.76367" fill="#FFD748"/>
<ellipse opacity="0.3" cx="220" cy="26.4152" rx="4" ry="3.76367" fill="#FFD748"/>
<ellipse opacity="0.3" cx="256" cy="26.4152" rx="4" ry="3.76367" fill="#FFD748"/>
<ellipse opacity="0.3" cx="4.5" cy="48.9972" rx="4.5" ry="3.76367" fill="#FFD748"/>
<ellipse opacity="0.3" cx="40.5" cy="48.9972" rx="4.5" ry="3.76367" fill="#FFD748"/>
<ellipse opacity="0.3" cx="76" cy="48.9972" rx="4" ry="3.76367" fill="#FFD748"/>
<ellipse opacity="0.3" cx="112" cy="48.9972" rx="4" ry="3.76367" fill="#FFD748"/>
<ellipse opacity="0.3" cx="148" cy="48.9972" rx="4" ry="3.76367" fill="#FFD748"/>
<ellipse opacity="0.3" cx="184" cy="48.9972" rx="4" ry="3.76367" fill="#FFD748"/>
<ellipse opacity="0.3" cx="220" cy="48.9972" rx="4" ry="3.76367" fill="#FFD748"/>
<ellipse opacity="0.3" cx="256" cy="48.9972" rx="4" ry="3.76367" fill="#FFD748"/>
<ellipse opacity="0.3" cx="4.5" cy="71.5792" rx="4.5" ry="3.76367" fill="#FFD748"/>
<ellipse opacity="0.3" cx="40.5" cy="71.5792" rx="4.5" ry="3.76367" fill="#FFD748"/>
<ellipse opacity="0.3" cx="76" cy="71.5792" rx="4" ry="3.76367" fill="#FFD748"/>
<ellipse opacity="0.3" cx="112" cy="71.5792" rx="4" ry="3.76367" fill="#FFD748"/>
<ellipse opacity="0.3" cx="148" cy="71.5792" rx="4" ry="3.76367" fill="#FFD748"/>
<ellipse opacity="0.3" cx="184" cy="71.5792" rx="4" ry="3.76367" fill="#FFD748"/>
<ellipse opacity="0.3" cx="220" cy="71.5792" rx="4" ry="3.76367" fill="#FFD748"/>
<ellipse opacity="0.3" cx="256" cy="71.5792" rx="4" ry="3.76367" fill="#FFD748"/>
<ellipse opacity="0.3" cx="4.5" cy="94.1613" rx="4.5" ry="3.76367" fill="#FFD748"/>
<ellipse opacity="0.3" cx="40.5" cy="94.1613" rx="4.5" ry="3.76367" fill="#FFD748"/>
<ellipse opacity="0.3" cx="76" cy="94.1613" rx="4" ry="3.76367" fill="#FFD748"/>
<ellipse opacity="0.3" cx="112" cy="94.1613" rx="4" ry="3.76367" fill="#FFD748"/>
<ellipse opacity="0.3" cx="148" cy="94.1613" rx="4" ry="3.76367" fill="#FFD748"/>
<ellipse opacity="0.3" cx="184" cy="94.1613" rx="4" ry="3.76367" fill="#FFD748"/>
<ellipse opacity="0.3" cx="220" cy="94.1613" rx="4" ry="3.76367" fill="#FFD748"/>
<ellipse opacity="0.3" cx="256" cy="94.1613" rx="4" ry="3.76367" fill="#FFD748"/>
<ellipse opacity="0.3" cx="4.5" cy="116.743" rx="4.5" ry="3.76367" fill="#FFD748"/>
<ellipse opacity="0.3" cx="40.5" cy="116.743" rx="4.5" ry="3.76367" fill="#FFD748"/>
<ellipse opacity="0.3" cx="76" cy="116.743" rx="4" ry="3.76367" fill="#FFD748"/>
<ellipse opacity="0.3" cx="112" cy="116.743" rx="4" ry="3.76367" fill="#FFD748"/>
<ellipse opacity="0.3" cx="148" cy="116.743" rx="4" ry="3.76367" fill="#FFD748"/>
<ellipse opacity="0.3" cx="184" cy="116.743" rx="4" ry="3.76367" fill="#FFD748"/>
<ellipse opacity="0.3" cx="220" cy="116.743" rx="4" ry="3.76367" fill="#FFD748"/>
<ellipse opacity="0.3" cx="256" cy="116.743" rx="4" ry="3.76367" fill="#FFD748"/>
<ellipse opacity="0.3" cx="4.5" cy="139.325" rx="4.5" ry="3.76367" fill="#FFD748"/>
<ellipse opacity="0.3" cx="40.5" cy="139.325" rx="4.5" ry="3.76367" fill="#FFD748"/>
<ellipse opacity="0.3" cx="76" cy="139.325" rx="4" ry="3.76367" fill="#FFD748"/>
<ellipse opacity="0.3" cx="112" cy="139.325" rx="4" ry="3.76367" fill="#FFD748"/>
<ellipse opacity="0.3" cx="148" cy="139.325" rx="4" ry="3.76367" fill="#FFD748"/>
<ellipse opacity="0.3" cx="184" cy="139.325" rx="4" ry="3.76367" fill="#FFD748"/>
<ellipse opacity="0.3" cx="220" cy="139.325" rx="4" ry="3.76367" fill="#FFD748"/>
<ellipse opacity="0.3" cx="256" cy="139.325" rx="4" ry="3.76367" fill="#FFD748"/>
<ellipse opacity="0.3" cx="4.5" cy="161.907" rx="4.5" ry="3.76367" fill="#FFD748"/>
<ellipse opacity="0.3" cx="40.5" cy="161.907" rx="4.5" ry="3.76367" fill="#FFD748"/>
<ellipse opacity="0.3" cx="76" cy="161.907" rx="4" ry="3.76367" fill="#FFD748"/>
<ellipse opacity="0.3" cx="112" cy="161.907" rx="4" ry="3.76367" fill="#FFD748"/>
<ellipse opacity="0.3" cx="148" cy="161.907" rx="4" ry="3.76367" fill="#FFD748"/>
<ellipse opacity="0.3" cx="184" cy="161.907" rx="4" ry="3.76367" fill="#FFD748"/>
<ellipse opacity="0.3" cx="220" cy="161.907" rx="4" ry="3.76367" fill="#FFD748"/>
<ellipse opacity="0.3" cx="256" cy="161.907" rx="4" ry="3.76367" fill="#FFD748"/>
</svg>
